<svg xmlns="http://www.w3.org/2000/svg" viewBox="0 0 48 48" fill="none">
  <defs>
    <linearGradient id="tile" x1="7" y1="5" x2="42" y2="44" gradientUnits="userSpaceOnUse">
      <stop stop-color="#8686AC"/>
      <stop offset="0.44" stop-color="#505081"/>
      <stop offset="1" stop-color="#0F0E47"/>
    </linearGradient>
  </defs>
  <rect width="48" height="48" rx="14" fill="url(#tile)"/>
  <path d="M10 13.5C17.2 13.5 18.4 19.3 25 24M10 24H25M10 34.5C17.2 34.5 18.4 28.7 25 24" stroke="white" stroke-width="3.2" stroke-linecap="round" stroke-linejoin="round" opacity="0.88"/>
  <circle cx="10" cy="13.5" r="2.25" fill="#D8D8E8"/>
  <circle cx="10" cy="24" r="2.25" fill="white"/>
  <circle cx="10" cy="34.5" r="2.25" fill="#B7B7D2"/>
  <path d="M25 24H31.2" stroke="white" stroke-width="3.2" stroke-linecap="round"/>
  <path d="M36 14.5C36.9 19.4 40.6 23.1 45.5 24C40.6 24.9 36.9 28.6 36 33.5C35.1 28.6 31.4 24.9 26.5 24C31.4 23.1 35.1 19.4 36 14.5Z" fill="white"/>
  <circle cx="36" cy="24" r="2.1" fill="#505081"/>
  <path d="M4.5 15V10.5C4.5 7.2 7.2 4.5 10.5 4.5H15M33 43.5H37.5C40.8 43.5 43.5 40.8 43.5 37.5V33" stroke="white" stroke-width="1.4" stroke-linecap="round" opacity="0.28"/>
  <rect x="0.5" y="0.5" width="47" height="47" rx="13.5" stroke="white" stroke-opacity="0.25"/>
</svg>
